Coordinates
version=1
nRows=38
nColumns=12
inDegrees=yes

Units are S.I. units (second, meters, Newtons, ...)
Angles are in degrees

endheader
time	SC_y	SC_z	SC_x	AC_y	AC_z	AC_x	GH_y	GH_z	GH_yy	EL_x	PS_y
       0.0              -22.29          7.547          41.44          47.95          -17.4         -6.688         -120.5          75.32          101.7          11.48          83.08
   0.04885              -22.29          7.548          41.44          47.95         -17.39         -6.687         -120.4          75.31          101.7          11.49          83.07
   0.09771              -22.29          7.548          41.43          47.95         -17.39         -6.686         -120.4           75.3          101.7          11.51          83.07
    0.1466              -22.29          7.548          41.43          47.95         -17.39         -6.685         -120.4          75.29          101.7          11.52          83.06
    0.1954               -22.3          7.549          41.42          47.95         -17.39         -6.684         -120.3          75.27          101.7          11.54          83.05
    0.2443               -22.3          7.549          41.42          47.95         -17.39         -6.683         -120.3          75.26          101.7          11.56          83.04
    0.2931               -22.3           7.55          41.41          47.96         -17.38         -6.681         -120.2          75.24          101.7          11.58          83.03
     0.342              -22.31           7.55           41.4          47.96         -17.38          -6.68         -120.2          75.23          101.7           11.6          83.02
    0.3908              -22.31          7.551          41.39          47.96         -17.38         -6.678         -120.1          75.21          101.7          11.62          83.01
    0.4397              -22.31          7.552          41.39          47.96         -17.38         -6.677         -120.1          75.19          101.7          11.64           83.0
    0.4885              -22.32          7.552          41.38          47.97         -17.38         -6.675         -120.0          75.17          101.7          11.67          82.98
    0.5374              -22.32          7.553          41.37          47.97         -17.37         -6.673         -119.9          75.15          101.7          11.69          82.97
    0.5862              -22.33          7.554          41.36          47.97         -17.37         -6.671         -119.9          75.13          101.7          11.72          82.95
    0.6351              -22.33          7.554          41.35          47.98         -17.37         -6.669         -119.8           75.1          101.7          11.75          82.94
    0.6839              -22.34          7.555          41.34          47.98         -17.36         -6.666         -119.7          75.08          101.7          11.79          82.92
    0.7328              -22.35          7.556          41.32          47.99         -17.36         -6.664         -119.6          75.05          101.7          11.82           82.9
    0.7817              -22.35          7.557          41.31          47.99         -17.35         -6.661         -119.5          75.02          101.7          11.86          82.88
    0.8305              -22.36          7.558           41.3          47.99         -17.35         -6.658         -119.4          74.98          101.7          11.91          82.86
    0.8794              -22.37           7.56          41.28           48.0         -17.34         -6.655         -119.3          74.95          101.7          11.96          82.83
    0.9282              -22.38          7.561          41.26          48.01         -17.34         -6.651         -119.2           74.9          101.7          12.01          82.81
    0.9771              -22.39          7.562          41.24          48.01         -17.33         -6.647         -119.1          74.86          101.7          12.06          82.78
     1.026               -22.4          7.564          41.22          48.02         -17.33         -6.643         -118.9          74.81          101.7          12.13          82.74
     1.075              -22.41          7.566           41.2          48.03         -17.32         -6.638         -118.7          74.76          101.7           12.2          82.71
     1.124              -22.42          7.568          41.17          48.04         -17.31         -6.632         -118.6          74.69          101.7          12.27          82.67
     1.172              -22.44           7.57          41.14          48.05          -17.3         -6.626         -118.3          74.63          101.7          12.36          82.62
     1.221              -22.45          7.573          41.11          48.06         -17.29          -6.62         -118.1          74.55          101.7          12.46          82.57
      1.27              -22.47          7.575          41.07          48.07         -17.28         -6.612         -117.9          74.47          101.7          12.56          82.52
     1.319              -22.49          7.578          41.03          48.08         -17.27         -6.604         -117.6          74.37          101.7          12.68          82.46
     1.368              -22.52          7.582          40.99           48.1         -17.25         -6.594         -117.2          74.27          101.7          12.82          82.38
     1.417              -22.54          7.586          40.93          48.12         -17.24         -6.583         -116.9          74.14          101.8          12.97           82.3
     1.466              -22.58           7.59          40.87          48.14         -17.22         -6.571         -116.5          74.01          101.8          13.15          82.21
     1.514              -22.61          7.596           40.8          48.16          -17.2         -6.557         -116.0          73.85          101.8          13.35          82.11
     1.563              -22.65          7.602          40.72          48.19         -17.17          -6.54         -115.4          73.66          101.8          13.59          81.99
     1.612               -22.7          7.609          40.63          48.22         -17.15         -6.521         -114.8          73.45          101.8          13.86          81.84
     1.661              -22.75          7.617          40.52          48.26         -17.11         -6.499         -114.0           73.2          101.8          14.18          81.68
      1.71              -22.82          7.627           40.4           48.3         -17.07         -6.473         -113.1          72.91          101.8          14.55          81.48
     1.759              -22.89          7.638          40.24          48.35         -17.03         -6.442         -112.0          72.56          101.8           15.0          81.25
     1.808              -22.99          7.652          40.06          48.41         -16.97         -6.404         -110.7          72.14          101.8          15.53          80.98
